<svg id="bicycle"
    xmlns="http://www.w3.org/2000/svg" viewBox="0 0 1626.5 832">
    <defs>
        <style>.cls-1{fill:#ccc;}.cls-2{fill:#e91300;}.cls-3{stroke:#000;stroke-miterlimit:10;stroke-width:6.26px;}</style>
    </defs>
    <g id="wheel1">
        <path d="M366,943.35c-68.07,0-132.06-27.33-180.19-76.94s-74.65-115.59-74.65-185.76S137.66,544.5,185.8,494.88,297.92,417.94,366,417.94s132.06,27.33,180.19,76.94,74.64,115.59,74.64,185.77-26.51,136.14-74.64,185.76S434.05,943.35,366,943.35ZM365.29,466c-114.46,0-207.58,96-207.58,213.95s93.12,214,207.58,214,207.58-96,207.58-214S479.75,466,365.29,466Z" transform="translate(-110.5 -112)"/>
        <path d="M366,418.6a246,246,0,0,1,98.92,20.59,252.9,252.9,0,0,1,80.8,56.15,261.61,261.61,0,0,1,54.48,83.29,270.43,270.43,0,0,1,0,204A261.61,261.61,0,0,1,545.71,866a252.9,252.9,0,0,1-80.8,56.15,247.94,247.94,0,0,1-197.85,0A253,253,0,0,1,186.27,866a261.61,261.61,0,0,1-54.48-83.29,270.43,270.43,0,0,1,0-204,261.61,261.61,0,0,1,54.48-83.29,253,253,0,0,1,80.79-56.15A246.11,246.11,0,0,1,366,418.6m-.7,475.92c114.82,0,208.23-96.27,208.23-214.6s-93.41-214.6-208.23-214.6-208.24,96.27-208.24,214.6,93.41,214.6,208.24,214.6m.7-477.23c-141.1,0-255.49,117.91-255.49,263.36S224.89,944,366,944,621.48,826.09,621.48,680.65,507.09,417.29,366,417.29Zm-.7,475.93c-114.29,0-206.93-95.5-206.93-213.3S251,466.62,365.29,466.62s206.92,95.5,206.92,213.3-92.64,213.3-206.92,213.3Z" transform="translate(-110.5 -112)"/>
        <path class="cls-1" d="M445.51,873.37,366.27,677.29,287.08,873.23a188.72,188.72,0,0,0,158.43.14Z" transform="translate(-110.5 -112)"/>
        <path class="cls-1" d="M268.33,919.64l0,0h.1Z" transform="translate(-110.5 -112)"/>
        <path class="cls-1" d="M465.43,498.29,365.89,677.4l196-51.5a200.8,200.8,0,0,0-35.17-74.19A197.45,197.45,0,0,0,465.43,498.29Z" transform="translate(-110.5 -112)"/>
        <path class="cls-1" d="M608.27,613.69h0l-.06-.08Z" transform="translate(-110.5 -112)"/>
        <path class="cls-1" d="M266.42,498,366,677.11,170,625.6a200.76,200.76,0,0,1,35.17-74.18A197.48,197.48,0,0,1,266.42,498Z" transform="translate(-110.5 -112)"/>
        <path class="cls-1" d="M123.58,613.4h0l.06-.08Z" transform="translate(-110.5 -112)"/>
    </g>
    <g id="wheel2" data-name="wheel">
        <path d="M1481.51,936.64c-68.06,0-132.06-27.33-180.19-76.94s-74.65-115.59-74.65-185.76,26.51-136.15,74.65-185.77,112.13-76.94,180.19-76.94,132.06,27.33,180.19,76.94,74.65,115.59,74.65,185.77-26.51,136.14-74.65,185.76S1549.58,936.64,1481.51,936.64Zm-.7-477.38c-114.46,0-207.58,96-207.58,214s93.12,213.95,207.58,213.95,207.58-96,207.58-213.95S1595.27,459.26,1480.81,459.26Z" transform="translate(-110.5 -112)"/>
        <path d="M1481.51,411.89a246.11,246.11,0,0,1,98.93,20.59,253,253,0,0,1,80.79,56.15,261.61,261.61,0,0,1,54.48,83.29,270.43,270.43,0,0,1,0,204,261.61,261.61,0,0,1-54.48,83.29,253,253,0,0,1-80.79,56.15,247.94,247.94,0,0,1-197.85,0,252.9,252.9,0,0,1-80.8-56.15A261.61,261.61,0,0,1,1247.31,776a270.43,270.43,0,0,1,0-204,261.61,261.61,0,0,1,54.48-83.29,252.9,252.9,0,0,1,80.8-56.15,246,246,0,0,1,98.92-20.59m-.7,475.92c114.82,0,208.23-96.27,208.23-214.6s-93.41-214.6-208.23-214.6-208.24,96.27-208.24,214.6,93.42,214.6,208.24,214.6m.7-477.23c-141.1,0-255.49,117.91-255.49,263.36s114.39,263.35,255.49,263.35S1737,819.38,1737,673.94s-114.39-263.36-255.49-263.36Zm-.7,475.93c-114.29,0-206.93-95.5-206.93-213.3s92.64-213.3,206.93-213.3,206.92,95.5,206.92,213.3-92.64,213.3-206.92,213.3Z" transform="translate(-110.5 -112)"/>
        <path class="cls-1" d="M1561,866.66l-79.24-196.08L1402.6,866.52a188.72,188.72,0,0,0,158.43.14Z" transform="translate(-110.5 -112)"/>
        <path class="cls-1" d="M1383.85,912.93l0,0h.1Z" transform="translate(-110.5 -112)"/>
        <path class="cls-1" d="M1581,491.58l-99.54,179.11,196-51.5A200.8,200.8,0,0,0,1642.2,545,197.45,197.45,0,0,0,1581,491.58Z" transform="translate(-110.5 -112)"/>
        <path class="cls-1" d="M1723.79,607l0,0-.06-.08Z" transform="translate(-110.5 -112)"/>
        <path class="cls-1" d="M1381.94,491.28l99.54,179.12-196-51.51a200.76,200.76,0,0,1,35.17-74.18A197.48,197.48,0,0,1,1381.94,491.28Z" transform="translate(-110.5 -112)"/>
        <path class="cls-1" d="M1239.1,606.69h0l.06-.08Z" transform="translate(-110.5 -112)"/>
    </g>
    <path id="Chasis1" class="cls-2" d="M542.81,300.18,722.4,680.54l617-389.06Zm39,30.72,664-11L728.06,643.45Z" transform="translate(-110.5 -112)"/>
    <path id="Chasis2" data-name="Chasis" class="cls-2" d="M366.2,680.65H720.14L540.55,300.29Zm32-25.17L538.76,359.34,683.51,655.48Z" transform="translate(-110.5 -112)"/>
    <g id="seat">
        <path d="M397,88.9H494.9A16.08,16.08,0,0,1,511,105v29.21a0,0,0,0,1,0,0H397a0,0,0,0,1,0,0V88.9A0,0,0,0,1,397,88.9Z"/>
        <rect class="cls-2" x="430.02" y="134.19" width="31.39" height="53.68"/>
    </g>
    <g id="pedal">
        <polygon class="cls-2" points="581.42 662.01 559.6 654.22 641.31 418.21 663.13 426 581.42 662.01"/>
        <rect x="531.63" y="634.9" width="83.44" height="32.71"/>
        <rect x="612.6" y="399.23" width="83.44" height="32.71"/>
    </g>
    <polygon class="cls-2" points="1380.82 550.43 1173.74 37.74 1141.59 37.74 1353.3 561.89 1380.82 550.43"/>
    <polygon points="1278.48 37.74 1278.48 0 1158.49 0 1173.74 37.74 1278.48 37.74"/>
    <polygon points="1158.49 0 1144.74 0 1128.99 6.56 1141.59 37.74 1173.74 37.74 1158.49 0"/>
    <g id="hinges">
        <ellipse class="cls-3" cx="1370.01" cy="561.57" rx="36.76" ry="37.32"/>
        <ellipse class="cls-3" cx="254.49" cy="568.28" rx="36.76" ry="37.32"/>
    </g>
</svg>